<?xml version="1.0" encoding="UTF-8" standalone="no"?>
<!-- Generated by IcoMoon.io -->
<svg id="svg2" xmlns:rdf="http://www.w3.org/1999/02/22-rdf-syntax-ns#" xmlns="http://www.w3.org/2000/svg" height="32" width="74" version="1.1" xmlns:cc="http://creativecommons.org/ns#" xmlns:dc="http://purl.org/dc/elements/1.1/" viewBox="0 0 74 32">
 <metadata id="metadata16">
  <rdf:RDF>
   <cc:Work rdf:about="">
    <dc:format>image/svg+xml</dc:format>
    <dc:type rdf:resource="http://purl.org/dc/dcmitype/StillImage"/>
    <dc:title>swipe_left_right</dc:title>
   </cc:Work>
  </rdf:RDF>
 </metadata>
 <title id="title4">swipe_left_right</title>
 <g fill="#fff">
  <path id="path6" d="m9.433 16.01l9.988-9.988c0.507-0.507 0.761-1.127 0.761-1.86s-0.253-1.353-0.761-1.86l-1.541-1.541c-0.507-0.507-1.127-0.76-1.859-0.76s-1.353 0.253-1.86 0.76l-13.4 13.379c-0.507 0.507-0.761 1.127-0.761 1.86s0.253 1.353 0.761 1.86l13.4 13.379c0.507 0.507 1.127 0.76 1.86 0.76s1.353-0.253 1.86-0.76l1.541-1.541c0.507-0.507 0.761-1.123 0.761-1.85s-0.253-1.349-0.761-1.87l-9.988-9.968z"/>
  <path id="path8" d="m49.386 16.002c0 6.41-5.413 11.606-12.089 11.606s-12.089-5.196-12.089-11.606c0-6.41 5.413-11.606 12.089-11.606s12.089 5.196 12.089 11.606z"/>
  <path id="path10" d="m64.553 16.01l-9.988-9.988c-0.507-0.507-0.761-1.127-0.761-1.86s0.253-1.353 0.761-1.86l1.541-1.541c0.507-0.507 1.127-0.76 1.859-0.76s1.353 0.253 1.86 0.76l13.4 13.379c0.507 0.507 0.761 1.127 0.761 1.86s-0.253 1.353-0.761 1.86l-13.4 13.379c-0.507 0.507-1.127 0.76-1.86 0.76s-1.353-0.253-1.86-0.76l-1.541-1.541c-0.507-0.507-0.761-1.123-0.761-1.85s0.253-1.349 0.761-1.87l9.988-9.968z"/>
 </g>
</svg>
